<?xml version="1.0" encoding="utf-8"?>
<!-- Generator: Adobe Illustrator 23.0.0, SVG Export Plug-In . SVG Version: 6.00 Build 0)  -->
<svg version="1.1" id="Layer_5_copy_2" xmlns="http://www.w3.org/2000/svg" xmlns:xlink="http://www.w3.org/1999/xlink" x="0px"
	 y="0px" viewBox="0 0 111.7 51.8" style="enable-background:new 0 0 111.7 51.8;" xml:space="preserve">
<style type="text/css">
	.st0{fill:#262626;}
</style>
<g>
	<path class="st0" d="M53.5,10.1h-1.1v31.5H53c0.9,0,1.5-0.2,1.8-0.5c0.3-0.4,0.4-1.2,0.4-2.5v-26c0-1-0.1-1.6-0.4-2
		C54.5,10.3,54.1,10.1,53.5,10.1z"/>
	<path class="st0" d="M0,0v51.8h111.7V0H0z M29.2,38.6h-4.9V26.3l-3.2,12.1L21,38.6h-4.8h-0.1v-0.2l-3.2-12.1v12.3H8V13.2h4.9
		l5.6,15.5l0.1,0.1v-0.1l5.7-15.5h4.9V38.6z M39.6,46.4h-2.4v-41h2.4V46.4z M60,30.1c0,2.7-0.3,5.2-1,7.4c-0.4,1.2-0.9,2.2-1.5,2.9
		c-0.6,0.7-1.4,1.2-2.2,1.6c-0.8,0.3-1.9,0.5-3.1,0.5h-5.9c-0.1,0-0.2,0-0.3-0.1c-0.1-0.1-0.1-0.2-0.1-0.3c0-0.1,0.1-0.1,0.1-0.2
		v-0.1c0.1-0.1,0.2-0.1,0.3-0.1h1.2V10h-1.2c-0.1,0-0.2,0-0.3-0.1c-0.1,0-0.1-0.1-0.1-0.2c0-0.1,0-0.2,0.1-0.3
		c0.1-0.1,0.2-0.1,0.3-0.1h5.9c1.8,0,3.2,0.4,4.3,1.2s1.9,2.1,2.4,3.8c0.7,2.3,1,4.8,1.1,7.4V30.1z M73.7,39.4
		c-0.2,0.5-0.5,1-0.8,1.3c-1.1,1.2-2.3,1.8-3.7,1.8c0,0-2.2,0.3-4.1-1.9c-0.3,0.2-0.6,0.5-0.8,0.7c-0.7,0.7-0.9,0.8-1,0.8
		c-0.1,0-0.2,0-0.2-0.1C63,42,63,41.9,63,41.7V28.3c0-0.1,0-0.2,0.1-0.3c0.1-0.1,0.4-0.1,0.5,0.1c0.1,0.1,0.2,0.3,0.2,0.5v0.9
		c0,1.7,0.3,3.7,0.8,6c0.5,2.2,1.2,3.9,2.1,4.8c0.4,0.5,0.8,0.7,1.4,0.7c0.6,0,1.1-0.3,1.6-0.9c0.1-0.1,0.2-0.3,0.3-0.4
		c0.3-0.6,0.5-1.4,0.5-2.4c0-1.2-0.3-2.5-0.7-3.8c-0.6-1.8-2-4.7-4-8.7c-1.2-2.5-2.1-4.3-2.4-5.4c-0.3-1.1-0.5-2.2-0.5-3.3
		c0-1.4,0.2-2.7,0.7-3.7c0.3-0.6,0.5-1,0.8-1.3c1-1.2,2.2-1.8,3.5-1.8c0.1,0,0.1,0,0.1,0s1.7-0.2,3.6,1.4c0.4-0.2,0.7-0.5,1.1-0.8
		c0.3-0.2,0.4-0.3,0.5-0.3s0.1,0,0.2,0.1c0.1,0.1,0.1,0.2,0.1,0.4v11.6c0,0.2,0,0.4-0.1,0.5c-0.2,0.2-0.5,0.2-0.6,0
		c-0.1-0.1-0.1-0.1-0.3-1.6l0.1-0.1h-0.1c-0.6-4.4-1.4-7.3-2.3-8.7c-0.5-0.8-1.1-1.2-1.8-1.2c-0.5,0-0.9,0.2-1.3,0.7
		c-0.1,0.1-0.1,0.2-0.2,0.3c-0.3,0.4-0.4,1-0.4,1.7c0,1.7,1,4.5,2.9,8.3l1.9,3.8c1.2,2.5,2.1,4.6,2.6,6.2c0.4,1.5,0.6,2.9,0.6,4.1
		C74.5,37.1,74.2,38.3,73.7,39.4z M90.5,27.7c-0.1,0.1-0.2,0.1-0.3,0.1h-1.1v14.3c0,0.1,0,0.2-0.1,0.3c-0.1,0.1-0.1,0.1-0.2,0.1
		c0,0-0.1,0-0.2-0.1c-0.1-0.1-0.1-0.1-0.2-0.3l-0.6-1.7c-1.8,2.2-4.1,2.1-4.1,2.1c-0.1,0-0.1,0-0.2,0h-0.1h-0.1c-0.1,0-0.1,0-0.1,0
		c-1.8-0.1-3.2-1-4.2-2.9l-0.1-0.1c-0.1-0.2-0.1-0.3-0.2-0.4c-0.6-1.4-1.1-3.2-1.3-5.3c-0.1-1.3-0.2-2.5-0.2-3.7v-8
		c0-2.9,0.3-5.5,1-7.6c0.2-0.7,0.4-1.2,0.6-1.7c0.2-0.6,0.5-1.1,0.8-1.5c0.8-1.2,1.7-1.9,2.8-2.1h0.1h0.1c0,0,0,0,0.1,0H83h0.1h0.1
		c0.1,0,1.6-0.1,3.2,1.2l1-0.7c0,0,0.2-0.2,0.3-0.3c0.1,0,0.2,0,0.2,0H88c0,0,0.1,0,0.1,0.1c0,0.1,0,0.1,0,0.2v0.1v0.4v0.5v12
		c0,0.1,0,0.2-0.1,0.3c0,0.1-0.1,0.1-0.2,0.1c-0.2,0-0.3-0.1-0.3-0.2c0,0,0-0.1-0.1-1.2c-0.5-5.2-1.2-8.6-2.2-10.2
		c-0.4-0.7-1-1.1-1.6-1.2c-0.1,0-0.2,0-0.2,0c-0.1,0-0.1,0-0.1,0h-0.1c-0.3,0.1-0.5,0.2-0.6,0.4c-0.3,0.3-0.4,1-0.4,1.9v27.9
		c0,0.4,0.2,0.8,0.4,1c0.1,0.2,0.3,0.2,0.6,0.3h0.1c0.1,0,0.1,0,0.1,0c0.4,0,0.6-0.2,0.8-0.4c0.3-0.4,0.5-1,0.5-1.7V27.8H84
		c-0.1,0-0.2,0-0.3-0.1c-0.1-0.1-0.1-0.2-0.1-0.3c0-0.1,0-0.2,0.1-0.3C83.8,27,83.9,27,84,27h6.1c0.1,0,0.2,0,0.3,0.1
		c0.1,0.1,0.1,0.2,0.2,0.3C90.6,27.5,90.6,27.6,90.5,27.7z M105.4,10c0,0-0.1,0.1-0.4,0.2c-0.4,0.1-0.7,0.3-0.9,0.6
		c-0.2,0.2-0.3,0.7-0.3,1.5v30.2h-3.6v-0.1l-5.3-28.7v25.9c0,0.7,0,1.2,0.2,1.5c0.1,0.3,0.4,0.5,0.7,0.6l1,0.1
		c0.1,0.1,0.2,0.2,0.2,0.4c0,0.1,0,0.2-0.1,0.3c-0.1,0.1-0.2,0.1-0.4,0.1h-4.2c-0.1,0-0.1,0-0.2-0.1C92,42.4,92,42.3,92,42.2
		c0-0.1,0-0.2,0.1-0.2c0,0,0.1-0.1,0.4-0.2c0.5-0.1,0.7-0.3,0.9-0.6c0.2-0.3,0.3-0.8,0.3-1.6V10.1h-0.8c-0.1,0-0.2,0-0.3-0.1
		c-0.1-0.1-0.1-0.2-0.1-0.3c0-0.1,0-0.2,0.1-0.3c0.1-0.1,0.2-0.1,0.3-0.1h5.3c0,0,0.1,0,0.1,0.1l4.3,22.9v-0.1v-20
		c0-0.7,0-1.1-0.2-1.4c-0.1-0.3-0.4-0.5-0.7-0.6l-1-0.1c-0.1-0.1-0.2-0.2-0.2-0.4c0-0.1,0-0.2,0.1-0.3c0.1-0.1,0.2-0.1,0.4-0.1h4.2
		c0.1,0,0.1,0,0.2,0.1c0,0.1,0,0.2,0.1,0.3C105.5,9.9,105.5,9.9,105.4,10z"/>
</g>
</svg>
