<?xml version="1.0" encoding="utf-8"?>
<!-- Generator: Adobe Illustrator 23.0.0, SVG Export Plug-In . SVG Version: 6.00 Build 0)  -->
<svg version="1.1" id="Layer_1" xmlns="http://www.w3.org/2000/svg" xmlns:xlink="http://www.w3.org/1999/xlink" x="0px" y="0px"
	 viewBox="0 0 509 586" style="enable-background:new 0 0 509 586;" xml:space="preserve">
<style type="text/css">
	.st0{fill:#111111;}
</style>
<g>
	<g>
		<path class="st0" d="M474.4,555.1c-146.6,0-293.1,0-439.7,0c0-174.5,0-349,0-523.4c4.3-0.8,421-1.1,439.7-0.3
			C474.4,205.8,474.4,380.2,474.4,555.1z M220.9,468c22.6,0,45.1,0,67.6,0c0.7-2.5,1.6-4.9,2.1-7.3c1.2-6,3.2-11.7,4.6-17.6
			c1-4.2,2.3-8.4,3.4-12.6c1.5-5.7,2.9-11.5,4.4-17.2c1.2-4.5,2.4-9,3.6-13.5c1.5-5.5,3-11.1,4.5-16.6c1.1-4,2.6-8,3.4-12.1
			c1.2-6.1,3.3-12,4.7-18.1c1-4.2,2.3-8.4,3.4-12.6c1.5-5.7,2.9-11.5,4.4-17.2c1.2-4.5,2.4-9,3.6-13.5c0.8-2.8,1.6-5.7,2.4-8.5
			c0.2,0,0.5,0.1,0.7,0.1c0,55.6,0,111.1,0,166.6c22.8,0,45.3,0,67.7,0c0-116.7,0-233.3,0-349.7c-22.7,0-45.1,0-68,0
			c-0.4,1.3-0.5,2.5-1.1,3.6c-2.7,5.4-4.5,11.2-6.5,16.8c-2.8,8-6,15.9-8.5,24c-1.6,5.3-4,10.3-5.8,15.6c-2,5.8-4,11.7-6.3,17.4
			c-3.1,7.4-5.7,15-8.5,22.5c-2.9,8-6.1,15.8-8.7,23.9c-1.6,5.1-3.8,10.1-5.6,15.2c-2.3,6.7-5,13.3-7.5,19.9
			c-1.2,3.2-2.3,6.4-3.5,9.6c-2.2,6.1-4.1,12.3-6.5,18.3c-3.1,7.6-5.6,15.4-8.6,22.9c-0.6,1.4-0.2,3.4-2.4,4.6
			c-0.6-2.2-0.8-4.3-1.6-6c-3.7-7.2-5.3-15.1-8.8-22.4c-1.6-3.4-2.5-7.3-4-10.9c-1.5-3.5-2.8-7.2-4-10.8c-2.6-8.1-5.9-15.9-8.5-24
			c-1.8-5.5-4.1-11-6.2-16.4c-1.8-4.6-3.3-9.3-5-13.9c-1.8-4.9-3.7-9.8-5.5-14.7c-1.9-5.1-3.6-10.2-5.5-15.2
			c-1.8-4.9-3.7-9.8-5.5-14.7c-2-5.5-4-11-6-16.5c-1.6-4.5-3.4-8.9-5-13.4c-1.8-5.1-3.4-10.3-5.5-15.2c-2.4-5.7-4-11.7-6.5-17.3
			c-0.4-1-0.8-2-1-2.7c-23,0-45.4,0-67.9,0c0,116.6,0,233.1,0,349.6c22.7,0,45.2,0,67.9,0c0-55.5,0-110.8,0-166.2
			c0-0.1,0.1-0.3,0.3-0.4c0.1-0.1,0.2-0.1,0.3-0.1c0.5,1.5,1.1,2.9,1.4,4.4c1.2,6,3.1,11.7,4.6,17.6c1,4.2,2.2,8.4,3.4,12.6
			c1.6,5.7,2.9,11.5,4.4,17.2c1.1,4.2,2.7,8.3,3.5,12.5c1.2,6,3.2,11.7,4.6,17.6c1.1,4.5,2.3,9.1,3.5,13.6c0.8,3,1.4,6.1,2.3,9.1
			c1,3.4,2.1,6.8,2.8,10.4c0.7,3.6,2.1,7.1,3,10.8c1.3,5.6,3.5,11,4.6,16.6c0.9,4.6,2.3,9.1,3.5,13.6
			C218.7,460.6,219.1,464.4,220.9,468z"/>
	</g>
</g>
</svg>
