<?xml version="1.0" standalone="no"?>
<!DOCTYPE svg PUBLIC "-//W3C//DTD SVG 20010904//EN"
 "http://www.w3.org/TR/2001/REC-SVG-20010904/DTD/svg10.dtd">
<svg version="1.0" xmlns="http://www.w3.org/2000/svg"
 width="586.000000pt" height="586.000000pt" viewBox="0 0 586.000000 586.000000"
 preserveAspectRatio="xMidYMid meet">
<metadata>
Created by potrace 1.11, written by Peter Selinger 2001-2013
</metadata>
<g transform="translate(0.000000,586.000000) scale(0.100000,-0.100000)"
fill="#000000" stroke="none">
<path d="M743 5537 c-8 -13 -10 -5205 -2 -5218 3 -5 895 -8 2199 -7 l2194 3 1
2605 c0 1433 -1 2611 -3 2618 -5 16 -4379 16 -4389 -1z m1424 -927 c14 -36 28
-74 33 -85 11 -27 44 -118 70 -190 11 -33 24 -67 27 -75 3 -8 7 -18 8 -22 2
-5 4 -10 5 -13 1 -3 3 -8 5 -12 1 -5 5 -15 8 -23 4 -8 22 -58 41 -110 116
-324 220 -605 257 -695 4 -11 22 -60 39 -110 17 -49 35 -99 40 -110 4 -11 18
-49 30 -85 26 -77 32 -93 54 -143 9 -21 16 -42 16 -48 0 -6 6 -25 14 -42 8
-18 26 -66 41 -107 15 -41 36 -95 47 -119 11 -24 20 -52 21 -62 1 -11 4 -19 8
-19 8 0 9 3 59 140 21 58 43 116 49 130 5 14 31 84 56 155 25 72 49 137 52
145 3 8 7 20 9 25 3 12 76 204 107 285 12 30 22 60 23 65 1 6 27 77 58 159 31
82 56 155 56 162 0 8 5 14 10 14 6 0 9 3 8 8 -3 7 24 85 43 127 15 35 165 454
185 520 9 28 20 54 25 60 5 5 9 15 9 23 0 7 11 37 24 66 l25 54 338 -2 338 -1
0 -1745 0 -1745 -312 -1 c-172 -1 -319 -4 -327 -7 -41 -16 -41 -11 -40 846 0
450 -3 814 -7 810 -3 -4 -14 -35 -22 -68 -9 -33 -28 -105 -43 -160 -14 -55
-27 -107 -29 -115 -2 -8 -11 -42 -20 -75 -9 -33 -25 -94 -36 -135 -11 -41 -22
-84 -25 -95 -2 -11 -15 -60 -29 -110 -14 -49 -27 -97 -29 -105 -2 -8 -11 -40
-20 -70 -14 -49 -101 -381 -110 -420 -14 -59 -67 -250 -75 -272 -10 -26 -34
-36 -66 -28 -5 1 -14 2 -20 2 -30 -2 -274 -1 -295 1 -14 2 -36 0 -50 -3 -14
-4 -36 -4 -50 0 -14 4 -35 3 -47 -1 -12 -5 -25 -4 -28 0 -3 5 -20 6 -37 2 -18
-4 -47 -4 -65 1 -27 7 -34 15 -43 51 -7 23 -18 65 -26 94 -8 29 -17 63 -20 77
-2 14 -20 81 -40 148 -19 68 -39 139 -44 158 -11 45 -79 308 -125 480 -20 74
-47 176 -60 225 -49 190 -76 288 -80 295 -3 4 -7 25 -11 46 -6 38 -21 84 -27
84 -2 0 -3 -366 -3 -812 1 -447 0 -821 -3 -831 -3 -13 -13 -17 -40 -17 -20 1
-67 1 -105 0 -38 0 -71 1 -73 4 -3 2 -17 1 -31 -3 -15 -4 -38 -5 -52 -1 -14 4
-35 3 -47 -1 -12 -5 -25 -4 -28 1 -3 4 -17 5 -33 1 -15 -4 -39 -4 -54 0 -14 4
-29 5 -32 2 -7 -8 -167 -6 -174 2 -6 6 -12 3472 -6 3485 1 3 154 5 339 5 l337
0 25 -65z"/>
</g>
</svg>
